<mxfile host="app.diagrams.net" modified="2021-10-05T11:34:04.738Z" agent="5.0 (Windows NT 10.0; Win64; x64) AppleWebKit/537.36 (KHTML, like Gecko) Chrome/94.0.4606.71 Safari/537.36" etag="T9Ygo7IB99lhIPDl5ddc" version="15.4.1" type="github">
  <diagram id="h7fqJXp4B_87dpXTe8lP" name="Page-1">
    <mxGraphModel dx="2926" dy="1166" grid="1" gridSize="10" guides="1" tooltips="1" connect="1" arrows="1" fold="1" page="1" pageScale="1" pageWidth="850" pageHeight="1100" math="0" shadow="0">
      <root>
        <mxCell id="0" />
        <mxCell id="1" parent="0" />
        <mxCell id="Udc_CD9h00klC9ZJrQOx-2" value="Onco_admin&lt;br style=&quot;font-size: 30px;&quot;&gt;" style="shape=umlActor;verticalLabelPosition=bottom;verticalAlign=top;html=1;fontSize=30;" vertex="1" parent="1">
          <mxGeometry x="-580" y="1340" width="200" height="390" as="geometry" />
        </mxCell>
        <mxCell id="Udc_CD9h00klC9ZJrQOx-17" value="" style="rounded=0;whiteSpace=wrap;html=1;fontSize=16;" vertex="1" parent="1">
          <mxGeometry x="100" y="70" width="820" height="3250" as="geometry" />
        </mxCell>
        <mxCell id="Udc_CD9h00klC9ZJrQOx-3" value="Breast_admin" style="shape=umlActor;verticalLabelPosition=bottom;verticalAlign=top;html=1;fontSize=30;" vertex="1" parent="1">
          <mxGeometry x="1280" y="1330" width="195" height="370" as="geometry" />
        </mxCell>
        <mxCell id="Udc_CD9h00klC9ZJrQOx-4" value="OS_admin" style="shape=umlActor;verticalLabelPosition=bottom;verticalAlign=top;html=1;fontSize=30;" vertex="1" parent="1">
          <mxGeometry x="1265" y="1830" width="210" height="420" as="geometry" />
        </mxCell>
        <mxCell id="Udc_CD9h00klC9ZJrQOx-6" value="&lt;font style=&quot;font-size: 14px&quot;&gt;verify s_id&lt;/font&gt;" style="ellipse;whiteSpace=wrap;html=1;fontSize=18;fillColor=#f5f5f5;strokeColor=#666666;fontColor=#333333;" vertex="1" parent="1">
          <mxGeometry x="440" y="110" width="120" height="60" as="geometry" />
        </mxCell>
        <mxCell id="Udc_CD9h00klC9ZJrQOx-5" value="Log in" style="ellipse;whiteSpace=wrap;html=1;fontSize=18;fillColor=#dae8fc;strokeColor=#6c8ebf;" vertex="1" parent="1">
          <mxGeometry x="200" y="210" width="120" height="80" as="geometry" />
        </mxCell>
        <mxCell id="Udc_CD9h00klC9ZJrQOx-7" value="&lt;font style=&quot;font-size: 14px&quot;&gt;Display login&lt;br&gt;error&lt;/font&gt;" style="ellipse;whiteSpace=wrap;html=1;fontSize=18;fillColor=#f5f5f5;strokeColor=#666666;fontColor=#333333;" vertex="1" parent="1">
          <mxGeometry x="450" y="275" width="120" height="60" as="geometry" />
        </mxCell>
        <mxCell id="Udc_CD9h00klC9ZJrQOx-9" value="&lt;font style=&quot;font-size: 16px&quot;&gt;&amp;lt;include&amp;gt;&lt;/font&gt;" style="endArrow=open;endSize=12;dashed=1;html=1;rounded=0;fontSize=18;edgeStyle=orthogonalEdgeStyle;exitX=1;exitY=0.375;exitDx=0;exitDy=0;entryX=0;entryY=0.5;entryDx=0;entryDy=0;exitPerimeter=0;" edge="1" parent="1" source="Udc_CD9h00klC9ZJrQOx-5" target="Udc_CD9h00klC9ZJrQOx-6">
          <mxGeometry width="160" relative="1" as="geometry">
            <mxPoint x="370" y="390" as="sourcePoint" />
            <mxPoint x="530" y="390" as="targetPoint" />
          </mxGeometry>
        </mxCell>
        <mxCell id="Udc_CD9h00klC9ZJrQOx-16" value="&amp;lt;extend&amp;gt;" style="endArrow=block;endSize=16;endFill=0;html=1;rounded=0;fontSize=16;exitX=0;exitY=0.5;exitDx=0;exitDy=0;edgeStyle=orthogonalEdgeStyle;entryX=0.987;entryY=0.643;entryDx=0;entryDy=0;entryPerimeter=0;" edge="1" parent="1" source="Udc_CD9h00klC9ZJrQOx-7" target="Udc_CD9h00klC9ZJrQOx-5">
          <mxGeometry x="-0.1111" y="-20" width="160" relative="1" as="geometry">
            <mxPoint x="190" y="320" as="sourcePoint" />
            <mxPoint x="350" y="320" as="targetPoint" />
            <mxPoint as="offset" />
          </mxGeometry>
        </mxCell>
        <mxCell id="Udc_CD9h00klC9ZJrQOx-19" value="&lt;font style=&quot;font-size: 14px&quot;&gt;verify a_code&lt;/font&gt;" style="ellipse;whiteSpace=wrap;html=1;fontSize=18;fillColor=#f5f5f5;strokeColor=#666666;fontColor=#333333;" vertex="1" parent="1">
          <mxGeometry x="440" y="400" width="120" height="60" as="geometry" />
        </mxCell>
        <mxCell id="Udc_CD9h00klC9ZJrQOx-20" value="Register" style="ellipse;whiteSpace=wrap;html=1;fontSize=18;fillColor=#dae8fc;strokeColor=#6c8ebf;" vertex="1" parent="1">
          <mxGeometry x="200" y="500" width="120" height="80" as="geometry" />
        </mxCell>
        <mxCell id="Udc_CD9h00klC9ZJrQOx-21" value="&lt;font style=&quot;font-size: 14px&quot;&gt;Display code&lt;br&gt;error&lt;br&gt;&lt;/font&gt;" style="ellipse;whiteSpace=wrap;html=1;fontSize=18;fillColor=#f5f5f5;strokeColor=#666666;fontColor=#333333;" vertex="1" parent="1">
          <mxGeometry x="450" y="565" width="120" height="60" as="geometry" />
        </mxCell>
        <mxCell id="Udc_CD9h00klC9ZJrQOx-22" value="&lt;font style=&quot;font-size: 16px&quot;&gt;&amp;lt;include&amp;gt;&lt;/font&gt;" style="endArrow=open;endSize=12;dashed=1;html=1;rounded=0;fontSize=18;edgeStyle=orthogonalEdgeStyle;exitX=1;exitY=0.375;exitDx=0;exitDy=0;entryX=0;entryY=0.5;entryDx=0;entryDy=0;exitPerimeter=0;" edge="1" parent="1" source="Udc_CD9h00klC9ZJrQOx-20" target="Udc_CD9h00klC9ZJrQOx-19">
          <mxGeometry width="160" relative="1" as="geometry">
            <mxPoint x="370" y="680" as="sourcePoint" />
            <mxPoint x="530" y="680" as="targetPoint" />
          </mxGeometry>
        </mxCell>
        <mxCell id="Udc_CD9h00klC9ZJrQOx-23" value="&amp;lt;extend&amp;gt;" style="endArrow=block;endSize=16;endFill=0;html=1;rounded=0;fontSize=16;exitX=0;exitY=0.5;exitDx=0;exitDy=0;edgeStyle=orthogonalEdgeStyle;entryX=0.987;entryY=0.643;entryDx=0;entryDy=0;entryPerimeter=0;" edge="1" parent="1" source="Udc_CD9h00klC9ZJrQOx-21" target="Udc_CD9h00klC9ZJrQOx-20">
          <mxGeometry x="-0.1111" y="-20" width="160" relative="1" as="geometry">
            <mxPoint x="190" y="610" as="sourcePoint" />
            <mxPoint x="350" y="610" as="targetPoint" />
            <mxPoint as="offset" />
          </mxGeometry>
        </mxCell>
        <mxCell id="Udc_CD9h00klC9ZJrQOx-24" value="&lt;font style=&quot;font-size: 14px&quot;&gt;verify unique&lt;br&gt;username&lt;br&gt;&lt;/font&gt;" style="ellipse;whiteSpace=wrap;html=1;fontSize=18;fillColor=#f5f5f5;strokeColor=#666666;fontColor=#333333;" vertex="1" parent="1">
          <mxGeometry x="440" y="700" width="120" height="60" as="geometry" />
        </mxCell>
        <mxCell id="Udc_CD9h00klC9ZJrQOx-25" value="Password Reset" style="ellipse;whiteSpace=wrap;html=1;fontSize=18;fillColor=#dae8fc;strokeColor=#6c8ebf;" vertex="1" parent="1">
          <mxGeometry x="200" y="800" width="120" height="80" as="geometry" />
        </mxCell>
        <mxCell id="Udc_CD9h00klC9ZJrQOx-26" value="&lt;font style=&quot;font-size: 14px&quot;&gt;Display identity&lt;br&gt;error&lt;br&gt;&lt;/font&gt;" style="ellipse;whiteSpace=wrap;html=1;fontSize=18;fillColor=#f5f5f5;strokeColor=#666666;fontColor=#333333;" vertex="1" parent="1">
          <mxGeometry x="450" y="865" width="120" height="60" as="geometry" />
        </mxCell>
        <mxCell id="Udc_CD9h00klC9ZJrQOx-27" value="&lt;font style=&quot;font-size: 16px&quot;&gt;&amp;lt;include&amp;gt;&lt;/font&gt;" style="endArrow=open;endSize=12;dashed=1;html=1;rounded=0;fontSize=18;edgeStyle=orthogonalEdgeStyle;exitX=1;exitY=0.375;exitDx=0;exitDy=0;entryX=0;entryY=0.5;entryDx=0;entryDy=0;exitPerimeter=0;" edge="1" parent="1" source="Udc_CD9h00klC9ZJrQOx-25" target="Udc_CD9h00klC9ZJrQOx-24">
          <mxGeometry width="160" relative="1" as="geometry">
            <mxPoint x="370" y="980" as="sourcePoint" />
            <mxPoint x="530" y="980" as="targetPoint" />
          </mxGeometry>
        </mxCell>
        <mxCell id="Udc_CD9h00klC9ZJrQOx-28" value="&amp;lt;extend&amp;gt;" style="endArrow=block;endSize=16;endFill=0;html=1;rounded=0;fontSize=16;exitX=0;exitY=0.5;exitDx=0;exitDy=0;edgeStyle=orthogonalEdgeStyle;entryX=0.987;entryY=0.643;entryDx=0;entryDy=0;entryPerimeter=0;" edge="1" parent="1" source="Udc_CD9h00klC9ZJrQOx-26" target="Udc_CD9h00klC9ZJrQOx-25">
          <mxGeometry x="-0.1111" y="-20" width="160" relative="1" as="geometry">
            <mxPoint x="190" y="910" as="sourcePoint" />
            <mxPoint x="350" y="910" as="targetPoint" />
            <mxPoint as="offset" />
          </mxGeometry>
        </mxCell>
        <mxCell id="Udc_CD9h00klC9ZJrQOx-32" value="Add admins" style="ellipse;whiteSpace=wrap;html=1;fontSize=16;fillColor=#dae8fc;strokeColor=#6c8ebf;" vertex="1" parent="1">
          <mxGeometry x="200" y="1720" width="140" height="80" as="geometry" />
        </mxCell>
        <mxCell id="Udc_CD9h00klC9ZJrQOx-48" value="Add patients" style="ellipse;whiteSpace=wrap;html=1;fontSize=16;" vertex="1" parent="1">
          <mxGeometry x="200" y="1010" width="140" height="80" as="geometry" />
        </mxCell>
        <mxCell id="Udc_CD9h00klC9ZJrQOx-49" value="&lt;font style=&quot;font-size: 14px&quot;&gt;Add breast&lt;br&gt;clinic&lt;br&gt;&lt;/font&gt;" style="ellipse;whiteSpace=wrap;html=1;fontSize=18;fillColor=#f5f5f5;strokeColor=#666666;fontColor=#333333;" vertex="1" parent="1">
          <mxGeometry x="460" y="970" width="120" height="60" as="geometry" />
        </mxCell>
        <mxCell id="Udc_CD9h00klC9ZJrQOx-50" value="&lt;font style=&quot;font-size: 14px&quot;&gt;Add to onco&lt;br&gt;OS clinic&lt;br&gt;&lt;/font&gt;" style="ellipse;whiteSpace=wrap;html=1;fontSize=18;fillColor=#f5f5f5;strokeColor=#666666;fontColor=#333333;" vertex="1" parent="1">
          <mxGeometry x="460" y="1070" width="120" height="60" as="geometry" />
        </mxCell>
        <mxCell id="Udc_CD9h00klC9ZJrQOx-51" value="" style="endArrow=none;html=1;rounded=0;fontSize=16;edgeStyle=orthogonalEdgeStyle;exitX=0;exitY=0.5;exitDx=0;exitDy=0;entryX=0;entryY=0.5;entryDx=0;entryDy=0;" edge="1" source="Udc_CD9h00klC9ZJrQOx-50" target="Udc_CD9h00klC9ZJrQOx-49" parent="1">
          <mxGeometry width="50" height="50" relative="1" as="geometry">
            <mxPoint x="570" y="1020" as="sourcePoint" />
            <mxPoint x="620" y="970" as="targetPoint" />
            <Array as="points">
              <mxPoint x="420" y="1100" />
              <mxPoint x="420" y="1000" />
            </Array>
          </mxGeometry>
        </mxCell>
        <mxCell id="Udc_CD9h00klC9ZJrQOx-52" value="" style="endArrow=classic;html=1;rounded=0;fontSize=16;entryX=1;entryY=0.5;entryDx=0;entryDy=0;startArrow=none;startFill=0;endFill=1;" edge="1" parent="1">
          <mxGeometry width="50" height="50" relative="1" as="geometry">
            <mxPoint x="420" y="1049.33" as="sourcePoint" />
            <mxPoint x="340" y="1049.33" as="targetPoint" />
          </mxGeometry>
        </mxCell>
        <mxCell id="Udc_CD9h00klC9ZJrQOx-53" value="" style="endArrow=none;html=1;rounded=0;fontSize=16;edgeStyle=orthogonalEdgeStyle;exitX=0;exitY=0.5;exitDx=0;exitDy=0;entryX=0;entryY=0.5;entryDx=0;entryDy=0;" edge="1" parent="1">
          <mxGeometry width="50" height="50" relative="1" as="geometry">
            <mxPoint x="460" y="1099.97" as="sourcePoint" />
            <mxPoint x="460" y="999.97" as="targetPoint" />
            <Array as="points">
              <mxPoint x="420" y="1099.97" />
              <mxPoint x="420" y="999.97" />
            </Array>
          </mxGeometry>
        </mxCell>
        <mxCell id="Udc_CD9h00klC9ZJrQOx-54" value="Add patients" style="ellipse;whiteSpace=wrap;html=1;fontSize=16;fillColor=#dae8fc;strokeColor=#6c8ebf;" vertex="1" parent="1">
          <mxGeometry x="200" y="1009.97" width="140" height="80" as="geometry" />
        </mxCell>
        <mxCell id="Udc_CD9h00klC9ZJrQOx-59" value="&lt;font style=&quot;font-size: 14px&quot;&gt;Search patients&lt;br&gt;&lt;/font&gt;" style="ellipse;whiteSpace=wrap;html=1;fontSize=18;fillColor=#f5f5f5;strokeColor=#666666;fontColor=#333333;" vertex="1" parent="1">
          <mxGeometry x="460" y="1230" width="120" height="60" as="geometry" />
        </mxCell>
        <mxCell id="Udc_CD9h00klC9ZJrQOx-60" value="&lt;font style=&quot;font-size: 14px&quot;&gt;Delete patients&lt;br&gt;&lt;/font&gt;" style="ellipse;whiteSpace=wrap;html=1;fontSize=18;fillColor=#f5f5f5;strokeColor=#666666;fontColor=#333333;" vertex="1" parent="1">
          <mxGeometry x="460" y="1330" width="120" height="60" as="geometry" />
        </mxCell>
        <mxCell id="Udc_CD9h00klC9ZJrQOx-61" value="" style="endArrow=classic;html=1;rounded=0;fontSize=16;entryX=1;entryY=0.5;entryDx=0;entryDy=0;startArrow=none;startFill=0;endFill=1;" edge="1" parent="1">
          <mxGeometry width="50" height="50" relative="1" as="geometry">
            <mxPoint x="420" y="1309.33" as="sourcePoint" />
            <mxPoint x="340" y="1309.33" as="targetPoint" />
          </mxGeometry>
        </mxCell>
        <mxCell id="Udc_CD9h00klC9ZJrQOx-62" value="" style="endArrow=none;html=1;rounded=0;fontSize=16;edgeStyle=orthogonalEdgeStyle;exitX=0;exitY=0.5;exitDx=0;exitDy=0;entryX=0;entryY=0.5;entryDx=0;entryDy=0;" edge="1" parent="1">
          <mxGeometry width="50" height="50" relative="1" as="geometry">
            <mxPoint x="460" y="1359.97" as="sourcePoint" />
            <mxPoint x="460" y="1259.97" as="targetPoint" />
            <Array as="points">
              <mxPoint x="420" y="1359.97" />
              <mxPoint x="420" y="1259.97" />
            </Array>
          </mxGeometry>
        </mxCell>
        <mxCell id="Udc_CD9h00klC9ZJrQOx-63" value="Update patients" style="ellipse;whiteSpace=wrap;html=1;fontSize=16;fillColor=#dae8fc;strokeColor=#6c8ebf;" vertex="1" parent="1">
          <mxGeometry x="200" y="1269.97" width="140" height="80" as="geometry" />
        </mxCell>
        <mxCell id="Udc_CD9h00klC9ZJrQOx-64" value="&lt;font style=&quot;font-size: 14px&quot;&gt;Print patients&lt;br&gt;&lt;/font&gt;" style="ellipse;whiteSpace=wrap;html=1;fontSize=18;fillColor=#f5f5f5;strokeColor=#666666;fontColor=#333333;" vertex="1" parent="1">
          <mxGeometry x="460" y="1480" width="120" height="60" as="geometry" />
        </mxCell>
        <mxCell id="Udc_CD9h00klC9ZJrQOx-65" value="&lt;font style=&quot;font-size: 14px&quot;&gt;Get a backup&lt;br&gt;&lt;/font&gt;" style="ellipse;whiteSpace=wrap;html=1;fontSize=18;fillColor=#f5f5f5;strokeColor=#666666;fontColor=#333333;" vertex="1" parent="1">
          <mxGeometry x="460" y="1580" width="120" height="60" as="geometry" />
        </mxCell>
        <mxCell id="Udc_CD9h00klC9ZJrQOx-66" value="" style="endArrow=classic;html=1;rounded=0;fontSize=16;entryX=1;entryY=0.5;entryDx=0;entryDy=0;startArrow=none;startFill=0;endFill=1;" edge="1" parent="1">
          <mxGeometry width="50" height="50" relative="1" as="geometry">
            <mxPoint x="420" y="1559.33" as="sourcePoint" />
            <mxPoint x="340" y="1559.33" as="targetPoint" />
          </mxGeometry>
        </mxCell>
        <mxCell id="Udc_CD9h00klC9ZJrQOx-67" value="" style="endArrow=none;html=1;rounded=0;fontSize=16;edgeStyle=orthogonalEdgeStyle;exitX=0;exitY=0.5;exitDx=0;exitDy=0;entryX=0;entryY=0.5;entryDx=0;entryDy=0;" edge="1" parent="1">
          <mxGeometry width="50" height="50" relative="1" as="geometry">
            <mxPoint x="460" y="1609.97" as="sourcePoint" />
            <mxPoint x="460" y="1509.97" as="targetPoint" />
            <Array as="points">
              <mxPoint x="420" y="1609.97" />
              <mxPoint x="420" y="1509.97" />
            </Array>
          </mxGeometry>
        </mxCell>
        <mxCell id="Udc_CD9h00klC9ZJrQOx-68" value="Show patients" style="ellipse;whiteSpace=wrap;html=1;fontSize=16;fillColor=#dae8fc;strokeColor=#6c8ebf;" vertex="1" parent="1">
          <mxGeometry x="200" y="1519.97" width="140" height="80" as="geometry" />
        </mxCell>
        <mxCell id="Udc_CD9h00klC9ZJrQOx-72" value="" style="endArrow=none;html=1;rounded=0;fontSize=16;edgeStyle=orthogonalEdgeStyle;exitX=0;exitY=0.5;exitDx=0;exitDy=0;entryX=0;entryY=0.5;entryDx=0;entryDy=0;" edge="1" parent="1">
          <mxGeometry width="50" height="50" relative="1" as="geometry">
            <mxPoint x="460" y="1979.9700000000003" as="sourcePoint" />
            <mxPoint x="460" y="1879.97" as="targetPoint" />
            <Array as="points">
              <mxPoint x="420" y="1979.9700000000003" />
              <mxPoint x="420" y="1879.97" />
            </Array>
          </mxGeometry>
        </mxCell>
        <mxCell id="Udc_CD9h00klC9ZJrQOx-74" value="&lt;font style=&quot;font-size: 14px&quot;&gt;Print admins&lt;br&gt;&lt;/font&gt;" style="ellipse;whiteSpace=wrap;html=1;fontSize=18;fillColor=#f5f5f5;strokeColor=#666666;fontColor=#333333;" vertex="1" parent="1">
          <mxGeometry x="460" y="2090" width="120" height="60" as="geometry" />
        </mxCell>
        <mxCell id="Udc_CD9h00klC9ZJrQOx-75" value="&lt;font style=&quot;font-size: 14px&quot;&gt;Get a backup&lt;br&gt;&lt;/font&gt;" style="ellipse;whiteSpace=wrap;html=1;fontSize=18;fillColor=#f5f5f5;strokeColor=#666666;fontColor=#333333;" vertex="1" parent="1">
          <mxGeometry x="460" y="2190" width="120" height="60" as="geometry" />
        </mxCell>
        <mxCell id="Udc_CD9h00klC9ZJrQOx-76" value="" style="endArrow=classic;html=1;rounded=0;fontSize=16;entryX=1;entryY=0.5;entryDx=0;entryDy=0;startArrow=none;startFill=0;endFill=1;" edge="1" parent="1">
          <mxGeometry width="50" height="50" relative="1" as="geometry">
            <mxPoint x="420" y="2169.33" as="sourcePoint" />
            <mxPoint x="340" y="2169.33" as="targetPoint" />
          </mxGeometry>
        </mxCell>
        <mxCell id="Udc_CD9h00klC9ZJrQOx-77" value="" style="endArrow=none;html=1;rounded=0;fontSize=16;edgeStyle=orthogonalEdgeStyle;exitX=0;exitY=0.5;exitDx=0;exitDy=0;entryX=0;entryY=0.5;entryDx=0;entryDy=0;" edge="1" parent="1">
          <mxGeometry width="50" height="50" relative="1" as="geometry">
            <mxPoint x="460" y="2219.9700000000003" as="sourcePoint" />
            <mxPoint x="460" y="2119.9700000000003" as="targetPoint" />
            <Array as="points">
              <mxPoint x="420" y="2219.9700000000003" />
              <mxPoint x="420" y="2119.9700000000003" />
            </Array>
          </mxGeometry>
        </mxCell>
        <mxCell id="Udc_CD9h00klC9ZJrQOx-78" value="Show admins" style="ellipse;whiteSpace=wrap;html=1;fontSize=16;fillColor=#dae8fc;strokeColor=#6c8ebf;" vertex="1" parent="1">
          <mxGeometry x="200" y="2129.9700000000003" width="140" height="80" as="geometry" />
        </mxCell>
        <mxCell id="Udc_CD9h00klC9ZJrQOx-86" value="Update admins" style="ellipse;whiteSpace=wrap;html=1;fontSize=16;fillColor=#dae8fc;strokeColor=#6c8ebf;" vertex="1" parent="1">
          <mxGeometry x="200" y="1889.97" width="140" height="80" as="geometry" />
        </mxCell>
        <mxCell id="Udc_CD9h00klC9ZJrQOx-87" value="&lt;font style=&quot;font-size: 14px&quot;&gt;Serach admins&lt;br&gt;&lt;/font&gt;" style="ellipse;whiteSpace=wrap;html=1;fontSize=18;fillColor=#f5f5f5;strokeColor=#666666;fontColor=#333333;" vertex="1" parent="1">
          <mxGeometry x="460" y="1850" width="120" height="60" as="geometry" />
        </mxCell>
        <mxCell id="Udc_CD9h00klC9ZJrQOx-88" value="&lt;font style=&quot;font-size: 14px&quot;&gt;Delete admins&lt;br&gt;&lt;/font&gt;" style="ellipse;whiteSpace=wrap;html=1;fontSize=18;fillColor=#f5f5f5;strokeColor=#666666;fontColor=#333333;" vertex="1" parent="1">
          <mxGeometry x="460" y="1950" width="120" height="60" as="geometry" />
        </mxCell>
        <mxCell id="Udc_CD9h00klC9ZJrQOx-89" value="" style="endArrow=classic;html=1;rounded=0;fontSize=16;entryX=1;entryY=0.5;entryDx=0;entryDy=0;startArrow=none;startFill=0;endFill=1;" edge="1" parent="1">
          <mxGeometry width="50" height="50" relative="1" as="geometry">
            <mxPoint x="420" y="1929.33" as="sourcePoint" />
            <mxPoint x="340" y="1929.33" as="targetPoint" />
          </mxGeometry>
        </mxCell>
        <mxCell id="Udc_CD9h00klC9ZJrQOx-91" value="&lt;font style=&quot;font-size: 15px&quot;&gt;Print contacts&lt;/font&gt;" style="ellipse;whiteSpace=wrap;html=1;fontSize=18;" vertex="1" parent="1">
          <mxGeometry x="710" y="2570" width="120" height="60" as="geometry" />
        </mxCell>
        <mxCell id="Udc_CD9h00klC9ZJrQOx-92" value="" style="endArrow=classic;html=1;rounded=0;fontSize=16;entryX=1;entryY=0.5;entryDx=0;entryDy=0;startArrow=none;startFill=0;endFill=1;" edge="1" parent="1">
          <mxGeometry width="50" height="50" relative="1" as="geometry">
            <mxPoint x="440" y="2510" as="sourcePoint" />
            <mxPoint x="340" y="2510.0000000000005" as="targetPoint" />
          </mxGeometry>
        </mxCell>
        <mxCell id="Udc_CD9h00klC9ZJrQOx-93" value="" style="endArrow=none;html=1;rounded=0;fontSize=16;edgeStyle=orthogonalEdgeStyle;entryX=0;entryY=0.5;entryDx=0;entryDy=0;exitX=0;exitY=0.5;exitDx=0;exitDy=0;" edge="1" parent="1">
          <mxGeometry width="50" height="50" relative="1" as="geometry">
            <mxPoint x="480" y="2450" as="sourcePoint" />
            <mxPoint x="480" y="2349.9700000000003" as="targetPoint" />
            <Array as="points">
              <mxPoint x="440" y="2450" />
              <mxPoint x="440" y="2350" />
            </Array>
          </mxGeometry>
        </mxCell>
        <mxCell id="Udc_CD9h00klC9ZJrQOx-95" value="&lt;font style=&quot;font-size: 14px&quot;&gt;Get a backup&lt;br&gt;&lt;/font&gt;" style="ellipse;whiteSpace=wrap;html=1;fontSize=18;" vertex="1" parent="1">
          <mxGeometry x="710" y="2680" width="120" height="60" as="geometry" />
        </mxCell>
        <mxCell id="Udc_CD9h00klC9ZJrQOx-96" value="" style="endArrow=none;html=1;rounded=0;fontSize=16;entryX=0;entryY=0.5;entryDx=0;entryDy=0;exitX=0;exitY=0.5;exitDx=0;exitDy=0;edgeStyle=orthogonalEdgeStyle;" edge="1" parent="1">
          <mxGeometry width="50" height="50" relative="1" as="geometry">
            <mxPoint x="480" y="2450" as="sourcePoint" />
            <mxPoint x="480" y="2550" as="targetPoint" />
            <Array as="points">
              <mxPoint x="440" y="2450" />
              <mxPoint x="440" y="2550" />
            </Array>
          </mxGeometry>
        </mxCell>
        <mxCell id="Udc_CD9h00klC9ZJrQOx-97" value="&lt;font style=&quot;font-size: 14px&quot;&gt;Show contacts&lt;br&gt;&lt;/font&gt;" style="ellipse;whiteSpace=wrap;html=1;fontSize=18;" vertex="1" parent="1">
          <mxGeometry x="480" y="2610" width="120" height="60" as="geometry" />
        </mxCell>
        <mxCell id="Udc_CD9h00klC9ZJrQOx-98" value="" style="endArrow=none;html=1;rounded=0;fontSize=16;entryX=0.029;entryY=0.679;entryDx=0;entryDy=0;exitX=0;exitY=0.5;exitDx=0;exitDy=0;edgeStyle=orthogonalEdgeStyle;entryPerimeter=0;" edge="1" parent="1" target="Udc_CD9h00klC9ZJrQOx-97">
          <mxGeometry width="50" height="50" relative="1" as="geometry">
            <mxPoint x="480" y="2550" as="sourcePoint" />
            <mxPoint x="480" y="2650" as="targetPoint" />
            <Array as="points">
              <mxPoint x="440" y="2550" />
              <mxPoint x="440" y="2651" />
            </Array>
          </mxGeometry>
        </mxCell>
        <mxCell id="Udc_CD9h00klC9ZJrQOx-102" value="Add doctors&lt;br&gt;contacts" style="ellipse;whiteSpace=wrap;html=1;fontSize=16;" vertex="1" parent="1">
          <mxGeometry x="200" y="2470.0000000000005" width="140" height="80" as="geometry" />
        </mxCell>
        <mxCell id="Udc_CD9h00klC9ZJrQOx-103" value="&lt;font style=&quot;font-size: 14px&quot;&gt;Show contacts&lt;br&gt;&lt;/font&gt;" style="ellipse;whiteSpace=wrap;html=1;fontSize=18;" vertex="1" parent="1">
          <mxGeometry x="480" y="2320" width="120" height="60" as="geometry" />
        </mxCell>
        <mxCell id="Udc_CD9h00klC9ZJrQOx-104" value="&lt;font style=&quot;font-size: 14px&quot;&gt;Delete contacts&lt;br&gt;&lt;/font&gt;" style="ellipse;whiteSpace=wrap;html=1;fontSize=18;" vertex="1" parent="1">
          <mxGeometry x="480" y="2420" width="120" height="60" as="geometry" />
        </mxCell>
        <mxCell id="Udc_CD9h00klC9ZJrQOx-105" value="&lt;font style=&quot;font-size: 14px&quot;&gt;Update contacts&lt;br&gt;&lt;/font&gt;" style="ellipse;whiteSpace=wrap;html=1;fontSize=18;" vertex="1" parent="1">
          <mxGeometry x="480" y="2520" width="120" height="60" as="geometry" />
        </mxCell>
        <mxCell id="Udc_CD9h00klC9ZJrQOx-106" value="" style="endArrow=none;html=1;rounded=0;fontSize=15;edgeStyle=orthogonalEdgeStyle;entryX=0;entryY=0.5;entryDx=0;entryDy=0;exitX=0;exitY=0.5;exitDx=0;exitDy=0;" edge="1" parent="1" source="Udc_CD9h00klC9ZJrQOx-95" target="Udc_CD9h00klC9ZJrQOx-91">
          <mxGeometry width="50" height="50" relative="1" as="geometry">
            <mxPoint x="570" y="2670" as="sourcePoint" />
            <mxPoint x="620" y="2620" as="targetPoint" />
            <Array as="points">
              <mxPoint x="660" y="2710" />
              <mxPoint x="660" y="2600" />
            </Array>
          </mxGeometry>
        </mxCell>
        <mxCell id="Udc_CD9h00klC9ZJrQOx-107" value="" style="endArrow=classic;startArrow=none;html=1;rounded=0;fontSize=15;edgeStyle=orthogonalEdgeStyle;entryX=1;entryY=0.5;entryDx=0;entryDy=0;endFill=1;startFill=0;" edge="1" parent="1" target="Udc_CD9h00klC9ZJrQOx-97">
          <mxGeometry width="50" height="50" relative="1" as="geometry">
            <mxPoint x="660" y="2640" as="sourcePoint" />
            <mxPoint x="430" y="2660" as="targetPoint" />
          </mxGeometry>
        </mxCell>
        <mxCell id="Udc_CD9h00klC9ZJrQOx-108" value="Add doctors&lt;br&gt;contacts" style="ellipse;whiteSpace=wrap;html=1;fontSize=16;" vertex="1" parent="1">
          <mxGeometry x="200" y="2470.0000000000005" width="140" height="80" as="geometry" />
        </mxCell>
        <mxCell id="Udc_CD9h00klC9ZJrQOx-109" value="&lt;font style=&quot;font-size: 14px&quot;&gt;Show contacts&lt;br&gt;&lt;/font&gt;" style="ellipse;whiteSpace=wrap;html=1;fontSize=18;" vertex="1" parent="1">
          <mxGeometry x="480" y="2320" width="120" height="60" as="geometry" />
        </mxCell>
        <mxCell id="Udc_CD9h00klC9ZJrQOx-110" value="&lt;font style=&quot;font-size: 14px&quot;&gt;Delete contacts&lt;br&gt;&lt;/font&gt;" style="ellipse;whiteSpace=wrap;html=1;fontSize=18;" vertex="1" parent="1">
          <mxGeometry x="480" y="2420" width="120" height="60" as="geometry" />
        </mxCell>
        <mxCell id="Udc_CD9h00klC9ZJrQOx-111" value="Add doctors&lt;br&gt;contacts" style="ellipse;whiteSpace=wrap;html=1;fontSize=16;" vertex="1" parent="1">
          <mxGeometry x="200" y="2470.0000000000005" width="140" height="80" as="geometry" />
        </mxCell>
        <mxCell id="Udc_CD9h00klC9ZJrQOx-112" value="&lt;font style=&quot;font-size: 14px&quot;&gt;Show contacts&lt;br&gt;&lt;/font&gt;" style="ellipse;whiteSpace=wrap;html=1;fontSize=18;" vertex="1" parent="1">
          <mxGeometry x="480" y="2320" width="120" height="60" as="geometry" />
        </mxCell>
        <mxCell id="Udc_CD9h00klC9ZJrQOx-113" value="&lt;font style=&quot;font-size: 14px&quot;&gt;Delete contacts&lt;br&gt;&lt;/font&gt;" style="ellipse;whiteSpace=wrap;html=1;fontSize=18;" vertex="1" parent="1">
          <mxGeometry x="480" y="2420" width="120" height="60" as="geometry" />
        </mxCell>
        <mxCell id="Udc_CD9h00klC9ZJrQOx-114" value="&lt;font style=&quot;font-size: 14px&quot;&gt;Show contacts&lt;br&gt;&lt;/font&gt;" style="ellipse;whiteSpace=wrap;html=1;fontSize=18;" vertex="1" parent="1">
          <mxGeometry x="480" y="2610" width="120" height="60" as="geometry" />
        </mxCell>
        <mxCell id="Udc_CD9h00klC9ZJrQOx-115" value="&lt;font style=&quot;font-size: 14px&quot;&gt;Update contacts&lt;br&gt;&lt;/font&gt;" style="ellipse;whiteSpace=wrap;html=1;fontSize=18;" vertex="1" parent="1">
          <mxGeometry x="480" y="2520" width="120" height="60" as="geometry" />
        </mxCell>
        <mxCell id="Udc_CD9h00klC9ZJrQOx-116" value="Add doctors&lt;br&gt;contacts" style="ellipse;whiteSpace=wrap;html=1;fontSize=16;" vertex="1" parent="1">
          <mxGeometry x="200" y="2470.0000000000005" width="140" height="80" as="geometry" />
        </mxCell>
        <mxCell id="Udc_CD9h00klC9ZJrQOx-117" value="&lt;font style=&quot;font-size: 14px&quot;&gt;Show contacts&lt;br&gt;&lt;/font&gt;" style="ellipse;whiteSpace=wrap;html=1;fontSize=18;" vertex="1" parent="1">
          <mxGeometry x="480" y="2320" width="120" height="60" as="geometry" />
        </mxCell>
        <mxCell id="Udc_CD9h00klC9ZJrQOx-118" value="&lt;font style=&quot;font-size: 14px&quot;&gt;Delete contacts&lt;br&gt;&lt;/font&gt;" style="ellipse;whiteSpace=wrap;html=1;fontSize=18;" vertex="1" parent="1">
          <mxGeometry x="480" y="2420" width="120" height="60" as="geometry" />
        </mxCell>
        <mxCell id="Udc_CD9h00klC9ZJrQOx-119" value="&lt;font style=&quot;font-size: 14px&quot;&gt;Show contacts&lt;br&gt;&lt;/font&gt;" style="ellipse;whiteSpace=wrap;html=1;fontSize=18;" vertex="1" parent="1">
          <mxGeometry x="480" y="2610" width="120" height="60" as="geometry" />
        </mxCell>
        <mxCell id="Udc_CD9h00klC9ZJrQOx-120" value="&lt;font style=&quot;font-size: 14px&quot;&gt;Update contacts&lt;br&gt;&lt;/font&gt;" style="ellipse;whiteSpace=wrap;html=1;fontSize=18;" vertex="1" parent="1">
          <mxGeometry x="480" y="2520" width="120" height="60" as="geometry" />
        </mxCell>
        <mxCell id="Udc_CD9h00klC9ZJrQOx-121" value="&lt;font style=&quot;font-size: 14px&quot;&gt;Get a backup&lt;br&gt;&lt;/font&gt;" style="ellipse;whiteSpace=wrap;html=1;fontSize=18;" vertex="1" parent="1">
          <mxGeometry x="710" y="2680" width="120" height="60" as="geometry" />
        </mxCell>
        <mxCell id="Udc_CD9h00klC9ZJrQOx-122" value="&lt;font style=&quot;font-size: 15px&quot;&gt;Print contacts&lt;/font&gt;" style="ellipse;whiteSpace=wrap;html=1;fontSize=18;" vertex="1" parent="1">
          <mxGeometry x="710" y="2570" width="120" height="60" as="geometry" />
        </mxCell>
        <mxCell id="Udc_CD9h00klC9ZJrQOx-123" value="Add doctors&lt;br&gt;contacts" style="ellipse;whiteSpace=wrap;html=1;fontSize=16;fillColor=#dae8fc;strokeColor=#6c8ebf;" vertex="1" parent="1">
          <mxGeometry x="200" y="2470.0000000000005" width="140" height="80" as="geometry" />
        </mxCell>
        <mxCell id="Udc_CD9h00klC9ZJrQOx-124" value="&lt;font style=&quot;font-size: 14px&quot;&gt;Show contacts&lt;br&gt;&lt;/font&gt;" style="ellipse;whiteSpace=wrap;html=1;fontSize=18;fillColor=#f5f5f5;strokeColor=#666666;fontColor=#333333;" vertex="1" parent="1">
          <mxGeometry x="480" y="2320" width="120" height="60" as="geometry" />
        </mxCell>
        <mxCell id="Udc_CD9h00klC9ZJrQOx-125" value="&lt;font style=&quot;font-size: 14px&quot;&gt;Delete contacts&lt;br&gt;&lt;/font&gt;" style="ellipse;whiteSpace=wrap;html=1;fontSize=18;fillColor=#f5f5f5;strokeColor=#666666;fontColor=#333333;" vertex="1" parent="1">
          <mxGeometry x="480" y="2420" width="120" height="60" as="geometry" />
        </mxCell>
        <mxCell id="Udc_CD9h00klC9ZJrQOx-126" value="&lt;font style=&quot;font-size: 14px&quot;&gt;Show contacts&lt;br&gt;&lt;/font&gt;" style="ellipse;whiteSpace=wrap;html=1;fontSize=18;fillColor=#f5f5f5;strokeColor=#666666;fontColor=#333333;" vertex="1" parent="1">
          <mxGeometry x="480" y="2610" width="120" height="60" as="geometry" />
        </mxCell>
        <mxCell id="Udc_CD9h00klC9ZJrQOx-127" value="&lt;font style=&quot;font-size: 14px&quot;&gt;Update contacts&lt;br&gt;&lt;/font&gt;" style="ellipse;whiteSpace=wrap;html=1;fontSize=18;fillColor=#f5f5f5;strokeColor=#666666;fontColor=#333333;" vertex="1" parent="1">
          <mxGeometry x="480" y="2520" width="120" height="60" as="geometry" />
        </mxCell>
        <mxCell id="Udc_CD9h00klC9ZJrQOx-128" value="&lt;font style=&quot;font-size: 14px&quot;&gt;Get a backup&lt;br&gt;&lt;/font&gt;" style="ellipse;whiteSpace=wrap;html=1;fontSize=18;fillColor=#fff2cc;strokeColor=#d6b656;" vertex="1" parent="1">
          <mxGeometry x="710" y="2680" width="120" height="60" as="geometry" />
        </mxCell>
        <mxCell id="Udc_CD9h00klC9ZJrQOx-129" value="&lt;font style=&quot;font-size: 15px&quot;&gt;Print contacts&lt;/font&gt;" style="ellipse;whiteSpace=wrap;html=1;fontSize=18;fillColor=#fff2cc;strokeColor=#d6b656;" vertex="1" parent="1">
          <mxGeometry x="710" y="2570" width="120" height="60" as="geometry" />
        </mxCell>
        <mxCell id="Udc_CD9h00klC9ZJrQOx-130" value="" style="endArrow=classic;html=1;rounded=0;fontSize=16;entryX=1;entryY=0.5;entryDx=0;entryDy=0;startArrow=none;startFill=0;endFill=1;" edge="1" parent="1">
          <mxGeometry width="50" height="50" relative="1" as="geometry">
            <mxPoint x="440" y="2510" as="sourcePoint" />
            <mxPoint x="340" y="2510.0000000000005" as="targetPoint" />
          </mxGeometry>
        </mxCell>
        <mxCell id="Udc_CD9h00klC9ZJrQOx-131" value="" style="endArrow=none;html=1;rounded=0;fontSize=16;edgeStyle=orthogonalEdgeStyle;entryX=0;entryY=0.5;entryDx=0;entryDy=0;exitX=0;exitY=0.5;exitDx=0;exitDy=0;" edge="1" parent="1">
          <mxGeometry width="50" height="50" relative="1" as="geometry">
            <mxPoint x="480" y="2910" as="sourcePoint" />
            <mxPoint x="480" y="2809.97" as="targetPoint" />
            <Array as="points">
              <mxPoint x="440" y="2910" />
              <mxPoint x="440" y="2810" />
            </Array>
          </mxGeometry>
        </mxCell>
        <mxCell id="Udc_CD9h00klC9ZJrQOx-132" value="" style="endArrow=none;html=1;rounded=0;fontSize=16;entryX=0;entryY=0.5;entryDx=0;entryDy=0;exitX=0;exitY=0.5;exitDx=0;exitDy=0;edgeStyle=orthogonalEdgeStyle;" edge="1" parent="1">
          <mxGeometry width="50" height="50" relative="1" as="geometry">
            <mxPoint x="480" y="2910" as="sourcePoint" />
            <mxPoint x="480" y="3010" as="targetPoint" />
            <Array as="points">
              <mxPoint x="440" y="2910" />
              <mxPoint x="440" y="3010" />
            </Array>
          </mxGeometry>
        </mxCell>
        <mxCell id="Udc_CD9h00klC9ZJrQOx-133" value="" style="endArrow=none;html=1;rounded=0;fontSize=16;entryX=0.029;entryY=0.679;entryDx=0;entryDy=0;exitX=0;exitY=0.5;exitDx=0;exitDy=0;edgeStyle=orthogonalEdgeStyle;entryPerimeter=0;" edge="1" parent="1">
          <mxGeometry width="50" height="50" relative="1" as="geometry">
            <mxPoint x="480" y="3010" as="sourcePoint" />
            <mxPoint x="483.48" y="3110.74" as="targetPoint" />
            <Array as="points">
              <mxPoint x="440" y="3010" />
              <mxPoint x="440" y="3111" />
            </Array>
          </mxGeometry>
        </mxCell>
        <mxCell id="Udc_CD9h00klC9ZJrQOx-134" value="" style="endArrow=none;html=1;rounded=0;fontSize=15;edgeStyle=orthogonalEdgeStyle;entryX=0;entryY=0.5;entryDx=0;entryDy=0;exitX=0;exitY=0.5;exitDx=0;exitDy=0;" edge="1" parent="1">
          <mxGeometry width="50" height="50" relative="1" as="geometry">
            <mxPoint x="710" y="3170" as="sourcePoint" />
            <mxPoint x="710" y="3060" as="targetPoint" />
            <Array as="points">
              <mxPoint x="660" y="3170" />
              <mxPoint x="660" y="3060" />
            </Array>
          </mxGeometry>
        </mxCell>
        <mxCell id="Udc_CD9h00klC9ZJrQOx-135" value="" style="endArrow=classic;startArrow=none;html=1;rounded=0;fontSize=15;edgeStyle=orthogonalEdgeStyle;entryX=1;entryY=0.5;entryDx=0;entryDy=0;endFill=1;startFill=0;" edge="1" parent="1">
          <mxGeometry width="50" height="50" relative="1" as="geometry">
            <mxPoint x="660" y="3100" as="sourcePoint" />
            <mxPoint x="600" y="3100" as="targetPoint" />
          </mxGeometry>
        </mxCell>
        <mxCell id="Udc_CD9h00klC9ZJrQOx-136" value="Add wards&lt;br&gt;contacts" style="ellipse;whiteSpace=wrap;html=1;fontSize=16;fillColor=#dae8fc;strokeColor=#6c8ebf;" vertex="1" parent="1">
          <mxGeometry x="200" y="2930.0000000000005" width="140" height="80" as="geometry" />
        </mxCell>
        <mxCell id="Udc_CD9h00klC9ZJrQOx-137" value="&lt;font style=&quot;font-size: 14px&quot;&gt;Show contacts&lt;br&gt;&lt;/font&gt;" style="ellipse;whiteSpace=wrap;html=1;fontSize=18;fillColor=#f5f5f5;strokeColor=#666666;fontColor=#333333;" vertex="1" parent="1">
          <mxGeometry x="480" y="2780" width="120" height="60" as="geometry" />
        </mxCell>
        <mxCell id="Udc_CD9h00klC9ZJrQOx-138" value="&lt;font style=&quot;font-size: 14px&quot;&gt;Delete contacts&lt;br&gt;&lt;/font&gt;" style="ellipse;whiteSpace=wrap;html=1;fontSize=18;fillColor=#f5f5f5;strokeColor=#666666;fontColor=#333333;" vertex="1" parent="1">
          <mxGeometry x="480" y="2880" width="120" height="60" as="geometry" />
        </mxCell>
        <mxCell id="Udc_CD9h00klC9ZJrQOx-139" value="&lt;font style=&quot;font-size: 14px&quot;&gt;Show contacts&lt;br&gt;&lt;/font&gt;" style="ellipse;whiteSpace=wrap;html=1;fontSize=18;fillColor=#f5f5f5;strokeColor=#666666;fontColor=#333333;" vertex="1" parent="1">
          <mxGeometry x="480" y="3070" width="120" height="60" as="geometry" />
        </mxCell>
        <mxCell id="Udc_CD9h00klC9ZJrQOx-140" value="&lt;font style=&quot;font-size: 14px&quot;&gt;Update contacts&lt;br&gt;&lt;/font&gt;" style="ellipse;whiteSpace=wrap;html=1;fontSize=18;fillColor=#f5f5f5;strokeColor=#666666;fontColor=#333333;" vertex="1" parent="1">
          <mxGeometry x="480" y="2980" width="120" height="60" as="geometry" />
        </mxCell>
        <mxCell id="Udc_CD9h00klC9ZJrQOx-141" value="&lt;font style=&quot;font-size: 14px&quot;&gt;Get a backup&lt;br&gt;&lt;/font&gt;" style="ellipse;whiteSpace=wrap;html=1;fontSize=18;fillColor=#fff2cc;strokeColor=#d6b656;" vertex="1" parent="1">
          <mxGeometry x="710" y="3140" width="120" height="60" as="geometry" />
        </mxCell>
        <mxCell id="Udc_CD9h00klC9ZJrQOx-142" value="&lt;font style=&quot;font-size: 15px&quot;&gt;Print contacts&lt;/font&gt;" style="ellipse;whiteSpace=wrap;html=1;fontSize=18;fillColor=#fff2cc;strokeColor=#d6b656;" vertex="1" parent="1">
          <mxGeometry x="710" y="3030" width="120" height="60" as="geometry" />
        </mxCell>
        <mxCell id="Udc_CD9h00klC9ZJrQOx-143" value="" style="endArrow=classic;html=1;rounded=0;fontSize=16;entryX=1;entryY=0.5;entryDx=0;entryDy=0;startArrow=none;startFill=0;endFill=1;" edge="1" parent="1">
          <mxGeometry width="50" height="50" relative="1" as="geometry">
            <mxPoint x="440" y="2970" as="sourcePoint" />
            <mxPoint x="340" y="2970.0000000000005" as="targetPoint" />
          </mxGeometry>
        </mxCell>
        <mxCell id="Udc_CD9h00klC9ZJrQOx-146" value="" style="endArrow=classic;html=1;rounded=0;fontSize=15;edgeStyle=orthogonalEdgeStyle;entryX=0;entryY=0.5;entryDx=0;entryDy=0;endFill=1;exitX=1;exitY=0.3333333333333333;exitDx=0;exitDy=0;exitPerimeter=0;" edge="1" parent="1" source="Udc_CD9h00klC9ZJrQOx-2" target="Udc_CD9h00klC9ZJrQOx-5">
          <mxGeometry width="50" height="50" relative="1" as="geometry">
            <mxPoint x="-360" y="1400" as="sourcePoint" />
            <mxPoint x="-140" y="390" as="targetPoint" />
          </mxGeometry>
        </mxCell>
        <mxCell id="Udc_CD9h00klC9ZJrQOx-147" value="" style="endArrow=classic;html=1;rounded=0;fontSize=15;edgeStyle=orthogonalEdgeStyle;entryX=0;entryY=0.5;entryDx=0;entryDy=0;endFill=1;exitX=1;exitY=0.3333333333333333;exitDx=0;exitDy=0;exitPerimeter=0;" edge="1" parent="1" source="Udc_CD9h00klC9ZJrQOx-2" target="Udc_CD9h00klC9ZJrQOx-20">
          <mxGeometry width="50" height="50" relative="1" as="geometry">
            <mxPoint x="-380" y="1530" as="sourcePoint" />
            <mxPoint x="420" y="600" as="targetPoint" />
          </mxGeometry>
        </mxCell>
        <mxCell id="Udc_CD9h00klC9ZJrQOx-148" value="" style="endArrow=classic;html=1;rounded=0;fontSize=15;edgeStyle=orthogonalEdgeStyle;entryX=0;entryY=0.5;entryDx=0;entryDy=0;endFill=1;" edge="1" parent="1" target="Udc_CD9h00klC9ZJrQOx-25">
          <mxGeometry width="50" height="50" relative="1" as="geometry">
            <mxPoint x="-90" y="840" as="sourcePoint" />
            <mxPoint x="420" y="800" as="targetPoint" />
          </mxGeometry>
        </mxCell>
        <mxCell id="Udc_CD9h00klC9ZJrQOx-149" value="" style="endArrow=classic;html=1;rounded=0;fontSize=15;edgeStyle=orthogonalEdgeStyle;entryX=0;entryY=0.5;entryDx=0;entryDy=0;endFill=1;exitX=1;exitY=0.3333333333333333;exitDx=0;exitDy=0;exitPerimeter=0;" edge="1" parent="1" source="Udc_CD9h00klC9ZJrQOx-2" target="Udc_CD9h00klC9ZJrQOx-54">
          <mxGeometry width="50" height="50" relative="1" as="geometry">
            <mxPoint x="-380" y="1530" as="sourcePoint" />
            <mxPoint x="420" y="1200" as="targetPoint" />
          </mxGeometry>
        </mxCell>
        <mxCell id="Udc_CD9h00klC9ZJrQOx-150" value="" style="endArrow=classic;html=1;rounded=0;fontSize=15;edgeStyle=orthogonalEdgeStyle;entryX=0;entryY=0.5;entryDx=0;entryDy=0;endFill=1;" edge="1" parent="1" target="Udc_CD9h00klC9ZJrQOx-63">
          <mxGeometry width="50" height="50" relative="1" as="geometry">
            <mxPoint x="-380" y="1470" as="sourcePoint" />
            <mxPoint x="420" y="1400" as="targetPoint" />
          </mxGeometry>
        </mxCell>
        <mxCell id="Udc_CD9h00klC9ZJrQOx-151" value="" style="endArrow=classic;html=1;rounded=0;fontSize=15;edgeStyle=orthogonalEdgeStyle;entryX=0;entryY=0.5;entryDx=0;entryDy=0;endFill=1;exitX=1;exitY=0.3333333333333333;exitDx=0;exitDy=0;exitPerimeter=0;" edge="1" parent="1" source="Udc_CD9h00klC9ZJrQOx-2" target="Udc_CD9h00klC9ZJrQOx-68">
          <mxGeometry width="50" height="50" relative="1" as="geometry">
            <mxPoint x="-380" y="1530" as="sourcePoint" />
            <mxPoint x="420" y="1800" as="targetPoint" />
          </mxGeometry>
        </mxCell>
        <mxCell id="Udc_CD9h00klC9ZJrQOx-152" value="" style="endArrow=classic;html=1;rounded=0;fontSize=15;edgeStyle=orthogonalEdgeStyle;entryX=0;entryY=0.5;entryDx=0;entryDy=0;endFill=1;exitX=1;exitY=0.3333333333333333;exitDx=0;exitDy=0;exitPerimeter=0;" edge="1" parent="1" source="Udc_CD9h00klC9ZJrQOx-2" target="Udc_CD9h00klC9ZJrQOx-32">
          <mxGeometry width="50" height="50" relative="1" as="geometry">
            <mxPoint x="-380" y="1530" as="sourcePoint" />
            <mxPoint x="420" y="2000" as="targetPoint" />
          </mxGeometry>
        </mxCell>
        <mxCell id="Udc_CD9h00klC9ZJrQOx-153" value="" style="endArrow=classic;html=1;rounded=0;fontSize=15;edgeStyle=orthogonalEdgeStyle;entryX=0;entryY=0.5;entryDx=0;entryDy=0;endFill=1;exitX=1;exitY=0.3333333333333333;exitDx=0;exitDy=0;exitPerimeter=0;" edge="1" parent="1" source="Udc_CD9h00klC9ZJrQOx-2" target="Udc_CD9h00klC9ZJrQOx-86">
          <mxGeometry width="50" height="50" relative="1" as="geometry">
            <mxPoint x="-380" y="1530" as="sourcePoint" />
            <mxPoint x="420" y="2000" as="targetPoint" />
          </mxGeometry>
        </mxCell>
        <mxCell id="Udc_CD9h00klC9ZJrQOx-154" value="" style="endArrow=classic;html=1;rounded=0;fontSize=15;edgeStyle=orthogonalEdgeStyle;entryX=0;entryY=0.5;entryDx=0;entryDy=0;endFill=1;exitX=1;exitY=0.3333333333333333;exitDx=0;exitDy=0;exitPerimeter=0;" edge="1" parent="1" source="Udc_CD9h00klC9ZJrQOx-2" target="Udc_CD9h00klC9ZJrQOx-123">
          <mxGeometry width="50" height="50" relative="1" as="geometry">
            <mxPoint x="-380" y="1530" as="sourcePoint" />
            <mxPoint x="420" y="2400" as="targetPoint" />
          </mxGeometry>
        </mxCell>
        <mxCell id="Udc_CD9h00klC9ZJrQOx-155" value="" style="endArrow=none;html=1;rounded=0;fontSize=15;edgeStyle=orthogonalEdgeStyle;exitX=0;exitY=0.5;exitDx=0;exitDy=0;endFill=0;startArrow=classic;startFill=1;" edge="1" parent="1" source="Udc_CD9h00klC9ZJrQOx-136">
          <mxGeometry width="50" height="50" relative="1" as="geometry">
            <mxPoint x="370" y="2850" as="sourcePoint" />
            <mxPoint x="-90" y="1530" as="targetPoint" />
          </mxGeometry>
        </mxCell>
        <mxCell id="Udc_CD9h00klC9ZJrQOx-156" value="" style="endArrow=none;html=1;rounded=0;fontSize=15;exitX=0.5;exitY=1;exitDx=0;exitDy=0;startArrow=classic;startFill=1;strokeColor=#FF0000;" edge="1" parent="1" source="Udc_CD9h00klC9ZJrQOx-5">
          <mxGeometry width="50" height="50" relative="1" as="geometry">
            <mxPoint x="1010" y="330" as="sourcePoint" />
            <mxPoint x="1280" y="1450" as="targetPoint" />
            <Array as="points">
              <mxPoint x="900" y="480" />
            </Array>
          </mxGeometry>
        </mxCell>
        <mxCell id="Udc_CD9h00klC9ZJrQOx-160" value="" style="endArrow=classic;html=1;rounded=0;fontSize=15;strokeColor=#FF0000;entryX=0.5;entryY=1;entryDx=0;entryDy=0;startArrow=none;startFill=0;endFill=1;exitX=0;exitY=0.3333333333333333;exitDx=0;exitDy=0;exitPerimeter=0;" edge="1" parent="1" source="Udc_CD9h00klC9ZJrQOx-3" target="Udc_CD9h00klC9ZJrQOx-20">
          <mxGeometry width="50" height="50" relative="1" as="geometry">
            <mxPoint x="1300" y="1330" as="sourcePoint" />
            <mxPoint x="660" y="1000" as="targetPoint" />
            <Array as="points">
              <mxPoint x="870" y="790" />
            </Array>
          </mxGeometry>
        </mxCell>
        <mxCell id="Udc_CD9h00klC9ZJrQOx-161" value="" style="endArrow=classic;html=1;rounded=0;fontSize=15;strokeColor=#0066CC;exitX=0;exitY=0.3333333333333333;exitDx=0;exitDy=0;exitPerimeter=0;endFill=1;" edge="1" parent="1" source="Udc_CD9h00klC9ZJrQOx-4">
          <mxGeometry width="50" height="50" relative="1" as="geometry">
            <mxPoint x="1120" y="1620" as="sourcePoint" />
            <mxPoint x="260" y="290" as="targetPoint" />
            <Array as="points">
              <mxPoint x="960" y="460" />
            </Array>
          </mxGeometry>
        </mxCell>
        <mxCell id="Udc_CD9h00klC9ZJrQOx-162" value="" style="endArrow=classic;html=1;rounded=0;fontSize=15;strokeColor=#0066CC;entryX=0.5;entryY=1;entryDx=0;entryDy=0;exitX=0;exitY=0.3333333333333333;exitDx=0;exitDy=0;exitPerimeter=0;endFill=1;" edge="1" parent="1" source="Udc_CD9h00klC9ZJrQOx-4" target="Udc_CD9h00klC9ZJrQOx-20">
          <mxGeometry width="50" height="50" relative="1" as="geometry">
            <mxPoint x="1010" y="1370" as="sourcePoint" />
            <mxPoint x="670" y="1000" as="targetPoint" />
            <Array as="points">
              <mxPoint x="890" y="770" />
            </Array>
          </mxGeometry>
        </mxCell>
        <mxCell id="Udc_CD9h00klC9ZJrQOx-163" value="" style="endArrow=classic;html=1;rounded=0;fontSize=15;strokeColor=#0066CC;entryX=0.5;entryY=1;entryDx=0;entryDy=0;exitX=0;exitY=0.3333333333333333;exitDx=0;exitDy=0;exitPerimeter=0;endFill=1;" edge="1" parent="1" source="Udc_CD9h00klC9ZJrQOx-4" target="Udc_CD9h00klC9ZJrQOx-25">
          <mxGeometry width="50" height="50" relative="1" as="geometry">
            <mxPoint x="320" y="1250" as="sourcePoint" />
            <mxPoint x="370" y="1200" as="targetPoint" />
            <Array as="points">
              <mxPoint x="870" y="1030" />
            </Array>
          </mxGeometry>
        </mxCell>
        <mxCell id="Udc_CD9h00klC9ZJrQOx-164" value="" style="endArrow=none;html=1;rounded=0;fontSize=15;strokeColor=#FF0000;entryX=0.5;entryY=1;entryDx=0;entryDy=0;exitX=0;exitY=0.3333333333333333;exitDx=0;exitDy=0;exitPerimeter=0;" edge="1" parent="1" source="Udc_CD9h00klC9ZJrQOx-3" target="Udc_CD9h00klC9ZJrQOx-25">
          <mxGeometry width="50" height="50" relative="1" as="geometry">
            <mxPoint x="320" y="1020" as="sourcePoint" />
            <mxPoint x="370" y="970" as="targetPoint" />
            <Array as="points">
              <mxPoint x="850" y="1050" />
            </Array>
          </mxGeometry>
        </mxCell>
        <mxCell id="Udc_CD9h00klC9ZJrQOx-165" value="" style="endArrow=classic;html=1;rounded=0;fontSize=15;strokeColor=#FF0000;entryX=0.5;entryY=1;entryDx=0;entryDy=0;exitX=0;exitY=0.3333333333333333;exitDx=0;exitDy=0;exitPerimeter=0;endFill=1;" edge="1" parent="1" source="Udc_CD9h00klC9ZJrQOx-3" target="Udc_CD9h00klC9ZJrQOx-63">
          <mxGeometry width="50" height="50" relative="1" as="geometry">
            <mxPoint x="320" y="1420" as="sourcePoint" />
            <mxPoint x="370" y="1370" as="targetPoint" />
            <Array as="points">
              <mxPoint x="510" y="1420" />
            </Array>
          </mxGeometry>
        </mxCell>
        <mxCell id="Udc_CD9h00klC9ZJrQOx-166" value="" style="endArrow=classic;html=1;rounded=0;fontSize=15;strokeColor=#0000CC;entryX=0;entryY=0.3333333333333333;entryDx=0;entryDy=0;entryPerimeter=0;exitX=0.5;exitY=1;exitDx=0;exitDy=0;endFill=1;" edge="1" parent="1" source="Udc_CD9h00klC9ZJrQOx-63" target="Udc_CD9h00klC9ZJrQOx-4">
          <mxGeometry width="50" height="50" relative="1" as="geometry">
            <mxPoint x="280" y="1360" as="sourcePoint" />
            <mxPoint x="370" y="1370" as="targetPoint" />
            <Array as="points">
              <mxPoint x="580" y="1470" />
            </Array>
          </mxGeometry>
        </mxCell>
        <mxCell id="Udc_CD9h00klC9ZJrQOx-167" value="" style="endArrow=none;html=1;rounded=0;fontSize=15;strokeColor=#0000CC;exitX=0.5;exitY=1;exitDx=0;exitDy=0;entryX=0;entryY=0.3333333333333333;entryDx=0;entryDy=0;entryPerimeter=0;endFill=0;startArrow=classic;startFill=1;" edge="1" parent="1" source="Udc_CD9h00klC9ZJrQOx-68" target="Udc_CD9h00klC9ZJrQOx-4">
          <mxGeometry width="50" height="50" relative="1" as="geometry">
            <mxPoint x="320" y="1620" as="sourcePoint" />
            <mxPoint x="370" y="1570" as="targetPoint" />
          </mxGeometry>
        </mxCell>
        <mxCell id="Udc_CD9h00klC9ZJrQOx-168" value="" style="endArrow=none;html=1;rounded=0;fontSize=15;strokeColor=#0000CC;exitX=0.5;exitY=1;exitDx=0;exitDy=0;entryX=0;entryY=0.3333333333333333;entryDx=0;entryDy=0;entryPerimeter=0;startArrow=classic;startFill=1;" edge="1" parent="1" source="Udc_CD9h00klC9ZJrQOx-86" target="Udc_CD9h00klC9ZJrQOx-4">
          <mxGeometry width="50" height="50" relative="1" as="geometry">
            <mxPoint x="320" y="1620" as="sourcePoint" />
            <mxPoint x="370" y="1570" as="targetPoint" />
            <Array as="points">
              <mxPoint x="520" y="2030" />
            </Array>
          </mxGeometry>
        </mxCell>
        <mxCell id="Udc_CD9h00klC9ZJrQOx-169" value="" style="endArrow=classic;html=1;rounded=0;fontSize=15;strokeColor=#0000CC;entryX=0.5;entryY=1;entryDx=0;entryDy=0;exitX=0;exitY=0.3333333333333333;exitDx=0;exitDy=0;exitPerimeter=0;startArrow=none;startFill=0;endFill=1;" edge="1" parent="1" source="Udc_CD9h00klC9ZJrQOx-4" target="Udc_CD9h00klC9ZJrQOx-78">
          <mxGeometry width="50" height="50" relative="1" as="geometry">
            <mxPoint x="320" y="2420" as="sourcePoint" />
            <mxPoint x="370" y="2370" as="targetPoint" />
            <Array as="points">
              <mxPoint x="530" y="2280" />
            </Array>
          </mxGeometry>
        </mxCell>
        <mxCell id="Udc_CD9h00klC9ZJrQOx-170" value="" style="endArrow=none;html=1;rounded=0;fontSize=15;strokeColor=#0000CC;exitX=0.5;exitY=1;exitDx=0;exitDy=0;edgeStyle=orthogonalEdgeStyle;entryX=0;entryY=0.3333333333333333;entryDx=0;entryDy=0;entryPerimeter=0;startArrow=classic;startFill=1;endFill=0;" edge="1" parent="1" source="Udc_CD9h00klC9ZJrQOx-123" target="Udc_CD9h00klC9ZJrQOx-4">
          <mxGeometry width="50" height="50" relative="1" as="geometry">
            <mxPoint x="320" y="2820" as="sourcePoint" />
            <mxPoint x="970" y="2140" as="targetPoint" />
            <Array as="points">
              <mxPoint x="270" y="2760" />
              <mxPoint x="970" y="2760" />
              <mxPoint x="970" y="1970" />
            </Array>
          </mxGeometry>
        </mxCell>
        <mxCell id="Udc_CD9h00klC9ZJrQOx-171" value="" style="endArrow=none;html=1;rounded=0;fontSize=15;strokeColor=#0000CC;edgeStyle=orthogonalEdgeStyle;exitX=0.5;exitY=1;exitDx=0;exitDy=0;endFill=0;startArrow=classic;startFill=1;" edge="1" parent="1" source="Udc_CD9h00klC9ZJrQOx-136">
          <mxGeometry width="50" height="50" relative="1" as="geometry">
            <mxPoint x="320" y="2620" as="sourcePoint" />
            <mxPoint x="1260" y="1970" as="targetPoint" />
            <Array as="points">
              <mxPoint x="270" y="3270" />
              <mxPoint x="1240" y="3270" />
              <mxPoint x="1240" y="1970" />
            </Array>
          </mxGeometry>
        </mxCell>
        <mxCell id="Udc_CD9h00klC9ZJrQOx-172" value="" style="endArrow=classic;html=1;rounded=0;fontSize=15;strokeColor=#FF0000;entryX=0.5;entryY=1;entryDx=0;entryDy=0;exitX=0;exitY=0.3333333333333333;exitDx=0;exitDy=0;exitPerimeter=0;startArrow=none;startFill=0;endFill=1;" edge="1" parent="1" source="Udc_CD9h00klC9ZJrQOx-3" target="Udc_CD9h00klC9ZJrQOx-68">
          <mxGeometry width="50" height="50" relative="1" as="geometry">
            <mxPoint x="320" y="1820" as="sourcePoint" />
            <mxPoint x="370" y="1770" as="targetPoint" />
            <Array as="points">
              <mxPoint x="650" y="1710" />
            </Array>
          </mxGeometry>
        </mxCell>
        <mxCell id="Udc_CD9h00klC9ZJrQOx-173" value="" style="endArrow=none;html=1;rounded=0;fontSize=15;strokeColor=#FF0000;exitX=0.5;exitY=1;exitDx=0;exitDy=0;entryX=0;entryY=0.3333333333333333;entryDx=0;entryDy=0;entryPerimeter=0;endFill=0;startArrow=classic;startFill=1;" edge="1" parent="1" source="Udc_CD9h00klC9ZJrQOx-86" target="Udc_CD9h00klC9ZJrQOx-3">
          <mxGeometry width="50" height="50" relative="1" as="geometry">
            <mxPoint x="870" y="2020" as="sourcePoint" />
            <mxPoint x="920" y="1970" as="targetPoint" />
            <Array as="points">
              <mxPoint x="530" y="2060" />
            </Array>
          </mxGeometry>
        </mxCell>
        <mxCell id="Udc_CD9h00klC9ZJrQOx-174" value="" style="endArrow=none;html=1;rounded=0;fontSize=15;strokeColor=#FF0000;exitX=0.5;exitY=1;exitDx=0;exitDy=0;entryX=0;entryY=0.3333333333333333;entryDx=0;entryDy=0;entryPerimeter=0;" edge="1" parent="1" source="Udc_CD9h00klC9ZJrQOx-78" target="Udc_CD9h00klC9ZJrQOx-3">
          <mxGeometry width="50" height="50" relative="1" as="geometry">
            <mxPoint x="870" y="2420" as="sourcePoint" />
            <mxPoint x="1110" y="1870" as="targetPoint" />
            <Array as="points">
              <mxPoint x="540" y="2300" />
            </Array>
          </mxGeometry>
        </mxCell>
        <mxCell id="Udc_CD9h00klC9ZJrQOx-175" value="" style="endArrow=none;html=1;rounded=0;fontSize=15;strokeColor=#FF0000;exitX=0.5;exitY=1;exitDx=0;exitDy=0;edgeStyle=orthogonalEdgeStyle;entryX=0;entryY=0.3333333333333333;entryDx=0;entryDy=0;entryPerimeter=0;" edge="1" parent="1" source="Udc_CD9h00klC9ZJrQOx-123" target="Udc_CD9h00klC9ZJrQOx-3">
          <mxGeometry width="50" height="50" relative="1" as="geometry">
            <mxPoint x="870" y="2620" as="sourcePoint" />
            <mxPoint x="1240" y="1770" as="targetPoint" />
            <Array as="points">
              <mxPoint x="270" y="2760" />
              <mxPoint x="1030" y="2760" />
              <mxPoint x="1030" y="1453" />
            </Array>
          </mxGeometry>
        </mxCell>
        <mxCell id="Udc_CD9h00klC9ZJrQOx-176" value="" style="endArrow=none;html=1;rounded=0;fontSize=15;strokeColor=#FF0000;edgeStyle=orthogonalEdgeStyle;exitX=0.5;exitY=1;exitDx=0;exitDy=0;" edge="1" parent="1" source="Udc_CD9h00klC9ZJrQOx-136">
          <mxGeometry width="50" height="50" relative="1" as="geometry">
            <mxPoint x="870" y="3020" as="sourcePoint" />
            <mxPoint x="1100" y="1660" as="targetPoint" />
            <Array as="points">
              <mxPoint x="270" y="3280" />
              <mxPoint x="1100" y="3280" />
            </Array>
          </mxGeometry>
        </mxCell>
      </root>
    </mxGraphModel>
  </diagram>
</mxfile>
